<mxfile host="app.diagrams.net" modified="2022-12-20T13:49:48.001Z" agent="5.0 (X11; Ubuntu)" etag="cehpxOXsPW5kmzlBCFpA" version="20.7.4" type="github">
  <diagram id="kgpKYQtTHZ0yAKxKKP6v" name="Page-1">
    <mxGraphModel dx="2252" dy="1802" grid="1" gridSize="10" guides="1" tooltips="1" connect="1" arrows="1" fold="1" page="1" pageScale="1" pageWidth="850" pageHeight="1100" math="0" shadow="0">
      <root>
        <mxCell id="0" />
        <mxCell id="1" parent="0" />
        <mxCell id="s_BYXz4qT-eq0fjf7td5-1" value="" style="ellipse;html=1;shape=endState;fillColor=#000000;strokeColor=#ff0000;" vertex="1" parent="1">
          <mxGeometry x="410" y="960" width="30" height="30" as="geometry" />
        </mxCell>
        <mxCell id="s_BYXz4qT-eq0fjf7td5-2" value="" style="ellipse;html=1;shape=startState;fillColor=#000000;strokeColor=#ff0000;" vertex="1" parent="1">
          <mxGeometry x="410" y="40" width="30" height="30" as="geometry" />
        </mxCell>
        <mxCell id="s_BYXz4qT-eq0fjf7td5-3" value="" style="edgeStyle=orthogonalEdgeStyle;html=1;verticalAlign=bottom;endArrow=open;endSize=8;strokeColor=#ff0000;rounded=0;entryX=0.5;entryY=0;entryDx=0;entryDy=0;entryPerimeter=0;" edge="1" source="s_BYXz4qT-eq0fjf7td5-2" parent="1" target="s_BYXz4qT-eq0fjf7td5-4">
          <mxGeometry relative="1" as="geometry">
            <mxPoint x="425" y="130" as="targetPoint" />
          </mxGeometry>
        </mxCell>
        <mxCell id="s_BYXz4qT-eq0fjf7td5-10" style="edgeStyle=orthogonalEdgeStyle;rounded=0;orthogonalLoop=1;jettySize=auto;html=1;exitX=0.5;exitY=1;exitDx=0;exitDy=0;entryX=0.5;entryY=0;entryDx=0;entryDy=0;fontSize=14;fontColor=#000000;" edge="1" parent="1" source="s_BYXz4qT-eq0fjf7td5-4" target="s_BYXz4qT-eq0fjf7td5-6">
          <mxGeometry relative="1" as="geometry" />
        </mxCell>
        <mxCell id="s_BYXz4qT-eq0fjf7td5-4" value="Action" style="rounded=1;whiteSpace=wrap;html=1;strokeWidth=2;fillWeight=4;hachureGap=8;hachureAngle=45;fillColor=#1ba1e2;sketch=1;" vertex="1" parent="1">
          <mxGeometry x="365" y="140" width="120" height="60" as="geometry" />
        </mxCell>
        <mxCell id="s_BYXz4qT-eq0fjf7td5-5" value="" style="ellipse;shape=doubleEllipse;html=1;dashed=0;whitespace=wrap;aspect=fixed;" vertex="1" parent="1">
          <mxGeometry x="700" y="950" width="60" height="60" as="geometry" />
        </mxCell>
        <mxCell id="s_BYXz4qT-eq0fjf7td5-18" style="edgeStyle=orthogonalEdgeStyle;rounded=0;orthogonalLoop=1;jettySize=auto;html=1;exitX=0;exitY=0.5;exitDx=0;exitDy=0;entryX=0.5;entryY=0;entryDx=0;entryDy=0;fontSize=14;fontColor=#000000;" edge="1" parent="1" source="s_BYXz4qT-eq0fjf7td5-6" target="s_BYXz4qT-eq0fjf7td5-15">
          <mxGeometry relative="1" as="geometry" />
        </mxCell>
        <mxCell id="s_BYXz4qT-eq0fjf7td5-19" style="edgeStyle=orthogonalEdgeStyle;rounded=0;orthogonalLoop=1;jettySize=auto;html=1;exitX=1;exitY=0.5;exitDx=0;exitDy=0;entryX=0.5;entryY=0;entryDx=0;entryDy=0;fontSize=14;fontColor=#000000;" edge="1" parent="1" source="s_BYXz4qT-eq0fjf7td5-6" target="s_BYXz4qT-eq0fjf7td5-17">
          <mxGeometry relative="1" as="geometry" />
        </mxCell>
        <mxCell id="s_BYXz4qT-eq0fjf7td5-20" style="edgeStyle=orthogonalEdgeStyle;rounded=0;orthogonalLoop=1;jettySize=auto;html=1;exitX=0.5;exitY=1;exitDx=0;exitDy=0;entryX=0.5;entryY=0;entryDx=0;entryDy=0;fontSize=14;fontColor=#000000;" edge="1" parent="1" source="s_BYXz4qT-eq0fjf7td5-6" target="s_BYXz4qT-eq0fjf7td5-16">
          <mxGeometry relative="1" as="geometry" />
        </mxCell>
        <mxCell id="s_BYXz4qT-eq0fjf7td5-6" value="&lt;font size=&quot;1&quot;&gt;&lt;b style=&quot;font-size: 14px;&quot;&gt;Decision&lt;/b&gt;&lt;/font&gt;" style="rhombus;whiteSpace=wrap;html=1;strokeWidth=2;fillWeight=-1;hachureGap=8;fillStyle=cross-hatch;fillColor=#006600;sketch=1;" vertex="1" parent="1">
          <mxGeometry x="365" y="270" width="120" height="60" as="geometry" />
        </mxCell>
        <mxCell id="s_BYXz4qT-eq0fjf7td5-7" value="Initial Node" style="text;html=1;align=center;verticalAlign=middle;resizable=0;points=[];autosize=1;strokeColor=none;fillColor=none;fontSize=14;fontColor=#000000;" vertex="1" parent="1">
          <mxGeometry x="380" y="10" width="90" height="30" as="geometry" />
        </mxCell>
        <mxCell id="s_BYXz4qT-eq0fjf7td5-8" value="Final node" style="text;html=1;align=center;verticalAlign=middle;resizable=0;points=[];autosize=1;strokeColor=none;fillColor=none;fontSize=14;fontColor=#000000;" vertex="1" parent="1">
          <mxGeometry x="380" y="990" width="90" height="30" as="geometry" />
        </mxCell>
        <mxCell id="s_BYXz4qT-eq0fjf7td5-9" value="" style="endArrow=classic;html=1;rounded=0;fontSize=14;fontColor=#000000;" edge="1" parent="1">
          <mxGeometry width="50" height="50" relative="1" as="geometry">
            <mxPoint x="400" y="940" as="sourcePoint" />
            <mxPoint x="450" y="890" as="targetPoint" />
          </mxGeometry>
        </mxCell>
        <mxCell id="s_BYXz4qT-eq0fjf7td5-11" value="" style="ellipse;whiteSpace=wrap;html=1;strokeWidth=2;fillWeight=2;hachureGap=8;fillColor=#990000;fillStyle=dots;sketch=1;fontSize=14;fontColor=#000000;" vertex="1" parent="1">
          <mxGeometry x="120" y="940" width="120" height="60" as="geometry" />
        </mxCell>
        <mxCell id="s_BYXz4qT-eq0fjf7td5-15" value="" style="rounded=0;whiteSpace=wrap;html=1;fontSize=14;fontColor=#000000;" vertex="1" parent="1">
          <mxGeometry x="-30" y="320" width="270" height="400" as="geometry" />
        </mxCell>
        <mxCell id="s_BYXz4qT-eq0fjf7td5-16" value="" style="rounded=0;whiteSpace=wrap;html=1;fontSize=14;fontColor=#000000;" vertex="1" parent="1">
          <mxGeometry x="290" y="420" width="270" height="400" as="geometry" />
        </mxCell>
        <mxCell id="s_BYXz4qT-eq0fjf7td5-17" value="" style="rounded=0;whiteSpace=wrap;html=1;fontSize=14;fontColor=#000000;" vertex="1" parent="1">
          <mxGeometry x="600" y="320" width="270" height="400" as="geometry" />
        </mxCell>
        <mxCell id="s_BYXz4qT-eq0fjf7td5-21" value="Activity" style="text;html=1;strokeColor=none;fillColor=none;align=center;verticalAlign=middle;whiteSpace=wrap;rounded=0;fontSize=14;fontColor=#000000;" vertex="1" parent="1">
          <mxGeometry x="395" y="430" width="60" height="30" as="geometry" />
        </mxCell>
        <mxCell id="s_BYXz4qT-eq0fjf7td5-22" value="Activity" style="text;html=1;strokeColor=none;fillColor=none;align=center;verticalAlign=middle;whiteSpace=wrap;rounded=0;fontSize=14;fontColor=#000000;" vertex="1" parent="1">
          <mxGeometry x="705" y="330" width="60" height="30" as="geometry" />
        </mxCell>
        <mxCell id="s_BYXz4qT-eq0fjf7td5-23" value="Activity" style="text;html=1;strokeColor=none;fillColor=none;align=center;verticalAlign=middle;whiteSpace=wrap;rounded=0;fontSize=14;fontColor=#000000;" vertex="1" parent="1">
          <mxGeometry x="75" y="330" width="60" height="30" as="geometry" />
        </mxCell>
      </root>
    </mxGraphModel>
  </diagram>
</mxfile>
